<svg xmlns="http://www.w3.org/2000/svg" width="154.221" height="30.258" viewBox="0 0 154.221 30.258">
    <defs>
        <style>
            .cls-1{fill:#e43330}
        </style>
    </defs>
    <g id="Grupo_32" data-name="Grupo 32" transform="translate(-187.253 112.477)">
        <g id="Grupo_14" data-name="Grupo 14" transform="translate(187.253 -112.477)">
            <path id="Trazado_9" d="M235.063-103.777c-.012-6.34-6.573-8.568-12.187-8.557-3.949.008-13.188.97-13.7 9.71a.668.668 0 0 0 .185.518.679.679 0 0 0 .472.191l6.675-.013a.647.647 0 0 0 .645-.594c.277-3.09 3.07-3.751 5.374-3.755 3.314-.006 5 1.026 5 3.039 0 2.117-1.606 2.416-4.951 2.837-.865.1-1.758.224-2.651.385-4.108.476-11.745 1.367-11.729 9.175.011 5.678 5.379 8.632 10.674 8.622 2.928-.005 7-.875 9.663-3.3a9.548 9.548 0 0 1 6.164-2.494.5.5 0 0 0 .371-.172.51.51 0 0 0 .094-.4 3.911 3.911 0 0 1-.069-.861zm-13.991 15.491c-2.985.005-4.633-.969-4.9-2.893-.354-2.518 2.176-3.48 4.372-3.843a35.05 35.05 0 0 1 2.146-.3l.116-.022a16.994 16.994 0 0 0 4.361-.89l.007 3.413c.008 3.321-3.644 4.531-6.102 4.535zm-14.858-23.188l.029 15.176c.012 6.381-1.466 13.709-13.054 13.73l-5.444.011a.48.48 0 0 1-.48-.469l-.012-6.27a.474.474 0 0 1 .478-.476l5.978-.012c3.887-.007 4.619-2.347 4.61-6.65l-.028-15.024a.654.654 0 0 1 .653-.649l6.609-.013a.658.658 0 0 1 .661.646zm74.622 8.316l.038 19.774a.658.658 0 0 1-.658.65l-6.667.013a.656.656 0 0 1-.656-.648l-.035-17.885c0-1.414-.348-5.118-4.687-5.11-4.038.008-4.469 3.314-4.466 5.128l.035 17.884a.658.658 0 0 1-.651.65l-6.6.013a.66.66 0 0 1-.658-.648l-.034-17.884c0-1.814-.445-5.118-4.49-5.111-4.332.009-4.662 3.713-4.66 5.128l.035 17.884a.661.661 0 0 1-.659.651l-6.668.012a.653.653 0 0 1-.653-.648l-.038-19.774c-.012-6 5.183-9.3 12.632-9.31a13.534 13.534 0 0 1 6.671 1.554 4.336 4.336 0 0 0 1.774.6 4.36 4.36 0 0 0 1.768-.61 13.515 13.515 0 0 1 6.655-1.579c7.453-.011 12.661 3.262 12.672 9.265zm29.1-.761c-.012-6.34-6.57-8.568-12.18-8.557-3.957.008-13.194.969-13.7 9.71a.629.629 0 0 0 .185.517.645.645 0 0 0 .467.193l6.671-.013a.653.653 0 0 0 .651-.595c.27-3.089 3.065-3.751 5.366-3.755 3.321-.006 5 1.026 5.006 3.039 0 2.117-1.6 2.417-4.95 2.837-.865.106-1.763.225-2.66.385-4.106.476-11.733 1.368-11.719 9.176.012 5.678 5.373 8.632 10.666 8.621 2.929-.005 7.01-.874 9.669-3.3a9.526 9.526 0 0 1 6.162-2.494.5.5 0 0 0 .371-.173.484.484 0 0 0 .093-.4 4.183 4.183 0 0 1-.07-.861zm-13.988 15.49c-2.982.005-4.633-.97-4.9-2.894-.348-2.517 2.182-3.48 4.373-3.843a36.04 36.04 0 0 1 2.149-.3l.12-.021a16.922 16.922 0 0 0 4.357-.891l.006 3.414c.005 3.315-3.644 4.53-6.105 4.535zm36.452-23.458l.012 6.269a.472.472 0 0 1-.478.469l-5.975.011c-3.889.008-4.62 2.356-4.612 6.659l.029 15.017a.659.659 0 0 1-.658.65l-6.608.013a.655.655 0 0 1-.652-.648l-.028-15.176c-.013-6.386 1.456-13.708 13.043-13.729l5.447-.011a.479.479 0 0 1 .48.476z" class="cls-1" data-name="Trazado 9" transform="translate(-187.253 112.477)"/>
        </g>
        <g id="Grupo_15" data-name="Grupo 15" transform="translate(334.574 -112.161)">
            <path id="Trazado_10" d="M323.453-108.709v-.014a3.458 3.458 0 0 1 3.454-3.462 3.427 3.427 0 0 1 3.446 3.429v.021a3.455 3.455 0 0 1-3.454 3.448 3.427 3.427 0 0 1-3.446-3.422zm6.538-.026v-.022a3.046 3.046 0 0 0-3.083-3.084 3.077 3.077 0 0 0-3.091 3.116v.015a3.051 3.051 0 0 0 3.082 3.084 3.08 3.08 0 0 0 3.092-3.109zm-4.485-1.9h1.615a1.487 1.487 0 0 1 1.094.39 1.009 1.009 0 0 1 .3.752v.021a1.071 1.071 0 0 1-.833 1.084l.97 1.357h-.817l-.877-1.24h-.758v1.242h-.691zm1.589 1.763c.447 0 .715-.221.715-.567v-.015c0-.366-.27-.565-.717-.565h-.895v1.147z" class="cls-1" data-name="Trazado 10" transform="translate(-323.453 112.185)"/>
        </g>
    </g>
</svg>
